PathFileType	4	(X/Y/Z)	Patient4_TMGait_0pt7_02_right_32.trc.trc
DataRate	CameraRate	NumFrames	NumMarkers	Units	OrigDataRate	OrigDataStartFrame	OrigNumFrames
87.500000000000	87.500000000000	4	33	mm	87.500000000000	124	       141
Frame#	Time	Sacral			L.Shoulder			Chest			R.Shoulder			Neck			R.ASIS			L.ASIS			R.Thigh.Superior			R.Thigh.Lateral			R.Thigh.Inferior			R.Patella			L.Thigh.Superior			L.Thigh.Lateral			L.Thigh.Inferior			L.Patella			L.Shank.Superior			L.Shank.Lateral			L.Shank.Inferior			R.Shank.Superior			R.Shank.Lateral			R.Shank.Inferior			R.Heel			R.Midfoot.Superior			R.Midfoot.Lateral			R.Toe			L.Heel			L.Midfoot.Lateral			L.Midfoot.Superior			L.Toe			L.Elbow			L.Wrist			R.Elbow			R.Wrist			
		X1	Y1	Z1	X2	Y2	Z2	X3	Y3	Z3	X4	Y4	Z4	X5	Y5	Z5	X6	Y6	Z6	X7	Y7	Z7	X8	Y8	Z8	X9	Y9	Z9	X10	Y10	Z10	X11	Y11	Z11	X12	Y12	Z12	X13	Y13	Z13	X14	Y14	Z14	X15	Y15	Z15	X16	Y16	Z16	X17	Y17	Z17	X18	Y18	Z18	X19	Y19	Z19	X20	Y20	Z20	X21	Y21	Z21	X22	Y22	Z22	X23	Y23	Z23	X24	Y24	Z24	X25	Y25	Z25	X26	Y26	Z26	X27	Y27	Z27	X28	Y28	Z28	X29	Y29	Z29	X30	Y30	Z30	X31	Y31	Z31	X32	Y32	Z32	X33	Y33	Z33	

124	37.445714285714	902.419832529317	1006.240322884432	460.446540964443	1129.696461568574	1417.858014642012	287.988665086263	1219.477163246971	1333.086254172717	450.498649923888	1138.967773559945	1417.087719072132	620.617388303382	1132.715453642627	1474.355100144703	440.594637332206	1116.482804693737	923.563294421303	591.014026285659	1119.311573700242	936.838657114561	316.476472390718	1184.350212612028	752.900897777992	563.070338503848	1132.937848209522	633.417328486862	633.022128688341	1219.796987350847	595.473987885481	552.446375508251	1247.373896470106	512.037650806280	566.836657933166	1120.289797447491	713.251266061268	349.270988735947	1009.659535344365	620.928140743250	278.074000621579	1063.758172485913	524.969613114067	347.579572001411	1046.560833349402	454.935196289812	355.239418083705	1001.561480308672	391.925988938403	342.098808868958	890.726602024137	305.720238600943	279.152205374180	901.829456098794	184.720624946422	349.621862139323	1232.252873354669	421.298816202800	578.247078756870	1178.306927205348	308.436865720416	642.353140299758	1243.553439148948	221.580665465377	587.295438412552	1142.410965772854	43.587233001785	559.943815913511	1309.070839344486	107.032156964432	596.689685092727	1227.620752405838	37.670324435567	631.151580584013	1432.513139318320	62.222378372568	618.931289964504	741.018995080623	47.195986371461	371.373945221036	821.371076135285	40.156915125910	298.374750095905	905.369786115429	96.653856971388	332.252185168210	1032.472081457600	39.050103157064	312.452553285981	1187.250300199252	1105.999308847825	124.879497892831	1423.125813241990	1166.038718883441	187.883598224792	961.182697863826	1124.336519529227	732.219833566538	897.127728411186	869.199232509971	730.535350206806	
125	37.457142857143	903.866336250142	1004.356380145340	463.541108537786	1129.766658631121	1416.153982157807	290.624434807579	1220.305921052576	1331.891285335900	453.038263603020	1139.945140922586	1415.678131593979	623.414468119475	1133.181801571600	1472.953441464970	443.313133038509	1118.322848813110	921.432710051468	593.839356541573	1120.729379811168	935.857778138444	319.265668245515	1186.335764936981	750.608763249148	566.267068839011	1132.688034800905	630.904664877704	634.009582512884	1220.953069049253	593.562669809120	554.780571800197	1246.861424059595	509.222781298599	567.837468216719	1121.969534329077	711.590300061470	351.216440848379	1011.133644187650	619.074638776773	280.594359524559	1066.211749618764	522.812363604085	349.273717574144	1049.064838789887	451.786908967454	356.519242873212	1001.747677333838	389.759345418626	343.554409190993	888.660218745326	306.681706761052	280.358124766198	897.085892354076	185.018220284511	349.909807986659	1231.014349115410	418.177247661213	578.487640238304	1175.399567255251	305.763420543738	641.899686946390	1239.051718195115	218.347463087643	586.089328884906	1134.548094184813	42.772630784399	558.269065932153	1302.103808731965	103.710578004738	594.503029848129	1219.440331157288	36.660749215409	629.922883506944	1424.939841386737	57.230071674639	617.583526133698	733.499990321130	50.624319836784	371.001411460484	813.725586349600	41.845921600044	298.184935440100	898.598441309137	97.054056220623	331.977553955601	1024.475900666370	38.802092753531	312.455556633524	1186.854480513053	1103.326262672139	128.313352256634	1421.625639484975	1165.930753240792	192.699248344692	962.429134400896	1122.283737463992	733.685067463210	896.748536621416	867.440304665722	731.436561092927	
126	37.468571428571	905.081924915178	1002.906124671545	466.555834751766	1130.066097144270	1414.737230875651	293.301053554483	1221.202958637027	1330.878801578775	455.664738781882	1141.014588187511	1414.534467082605	626.269650328405	1133.870952251989	1471.864245686053	446.107416215805	1120.018039357480	919.788340020160	596.736856768994	1121.861591088590	935.165230031783	322.060810944011	1188.569398962200	749.166219916946	569.359292446219	1132.968075803306	629.201986230603	634.984964278092	1222.565836266765	592.398336497480	557.049049140379	1246.995104430254	507.067114382946	568.846763007409	1123.990512933408	710.444207073389	353.275911194178	1013.426282147199	617.304972037734	283.229153016228	1069.899656226439	520.920939121281	351.114018692153	1052.958082551280	448.697655186858	357.812981294965	1003.128888761348	387.732568145672	345.097513296941	887.604018572765	308.184804931778	281.729400982980	893.145402974705	185.855377033982	350.266547216971	1230.139786500567	415.718613807623	578.764790192841	1172.768947276343	303.952492365523	641.809498008333	1234.358812188283	215.736417087741	585.119416579645	1126.046091232412	42.444428839362	557.176435694696	1294.565222248423	101.054344517946	592.664859876211	1210.731511704556	36.191441644359	629.173503035395	1416.837276449727	52.947040218191	616.514758986834	726.376817886657	55.436743377627	370.730538211036	806.310492108363	44.421907263891	298.082040687995	892.342389227692	97.757895427391	331.745997145747	1016.436992652973	38.385815041294	312.544877892998	1185.569044445778	1100.484144969500	131.995216562000	1419.811276361039	1164.273606346485	197.356703996067	964.597879975856	1119.806336777077	735.298805539007	898.086798738442	865.075635165765	732.624806892892	
127	37.480000000000	906.059368620018	1001.930962587514	469.479854948830	1130.588183747806	1413.681493246954	295.982347438248	1222.134701259705	1330.089646145781	458.332762078676	1142.157710117442	1413.713441231402	629.122300051366	1134.767960148902	1471.134223065605	448.926335009177	1121.546932791826	918.702456621252	599.667135096280	1122.659374201998	934.793137461950	324.809868144719	1190.882406084757	748.528948111737	572.268358634061	1133.695162074600	628.307277437413	636.045724185928	1224.366798230034	591.865468354408	559.214940589362	1247.511380700834	505.523891835290	569.959718895247	1126.351104488331	709.880630398665	355.425471463677	1016.581001921395	615.672926024221	285.925081533214	1074.851342230760	519.373382648973	353.065377677374	1058.246534837110	445.775054869348	359.084180537955	1005.768717948748	385.923109693212	346.702819783481	887.656145846398	310.298246219685	283.266805969913	890.116705098441	187.333806638371	350.726458566485	1229.451818994012	413.901755491539	579.184614946875	1170.327853393521	302.918890669154	642.123053229088	1229.563518476561	213.756457519099	584.482199882475	1117.308209872604	42.465881771757	556.628157062095	1286.751764342478	99.100403834496	591.288195043732	1201.882598941744	36.119524133584	628.866714617180	1408.540755919428	49.539894456954	615.791678946717	719.789997146509	61.819572000755	370.639870170208	799.220138843754	48.079819571888	298.119839972913	886.696902576770	98.868384252585	331.614798451476	1008.369596423606	37.765337188426	312.741199936852	1183.365116526648	1097.587214850713	135.921263509585	1417.715417478921	1161.048888424317	201.845142419916	967.621055756366	1117.046505947627	737.066897814388	901.184548547388	862.214477274866	734.128558494137	
